<svg xmlns="http://www.w3.org/2000/svg" width="105" height="25" viewBox="0 0 105 25">
  <defs>
    <style>
      .cls-1 {
        fill: red;
        fill-rule: evenodd;
      }
    </style>
  </defs>
  <path id="watch.svg" class="cls-1" d="M91.682,50.494H86.8L83.825,63.1q-0.288,1.137-.64,2.977t-0.512,3.072q-0.176-1.279-.512-3.064T81.6,63.429L78.193,50.494H73.5L70.1,63.429q-0.3,1.042-.648,2.93t-0.44,2.787q-0.352-2.559-1.136-6.049l-2.992-12.6H60l5.968,23.09H71.6l3.152-12.1q0.208-.806.592-2.693t0.48-2.74q0.064,0.7.488,2.724t0.6,2.677l3.168,12.129h5.648ZM107.7,73.584V61.818a5.685,5.685,0,0,0-1.92-4.706,8.61,8.61,0,0,0-5.52-1.548,14.7,14.7,0,0,0-6.849,1.6l1.616,3.253a12.821,12.821,0,0,1,5.041-1.279q2.784,0,2.784,2.685v0.774l-3.1.095a11.661,11.661,0,0,0-6.008,1.477,4.639,4.639,0,0,0-1.992,4.146A5.09,5.09,0,0,0,97.283,73.9a8.3,8.3,0,0,0,3.4-.592,7.193,7.193,0,0,0,2.536-2.124h0.128l0.944,2.4H107.7Zm-4.848-6.728a3.362,3.362,0,0,1-1.016,2.558,3.781,3.781,0,0,1-2.712.963q-2.368,0-2.368-2.037a2.371,2.371,0,0,1,1.04-2.116,6.111,6.111,0,0,1,3.168-.758l1.889-.063v1.453Zm14.554,2.716a1.865,1.865,0,0,1-.584-1.516V59.544h5.008V55.927h-5.008V52.168H113.7L112.293,55.9l-2.688,1.611v2.037h2.336v8.513a6.3,6.3,0,0,0,1.337,4.383,5.524,5.524,0,0,0,4.264,1.461,11.081,11.081,0,0,0,4.48-.805V69.51a10.7,10.7,0,0,1-3.072.553A2.323,2.323,0,0,1,117.406,69.573Zm17.234,4.043a7.917,7.917,0,0,0,2.392-1.027V68.467a9.455,9.455,0,0,1-2.4,1.161,8.788,8.788,0,0,1-2.608.371q-3.808,0-3.808-5.18,0-5.338,3.808-5.338a7,7,0,0,1,1.984.292q0.992,0.292,2.144.75l1.44-3.727a12.555,12.555,0,0,0-5.568-1.2,8.588,8.588,0,0,0-6.513,2.377q-2.271,2.377-2.272,6.878,0,9.05,8.353,9.05A13.631,13.631,0,0,0,134.64,73.616Zm21.738-11.545a6.6,6.6,0,0,0-1.632-4.8,6.387,6.387,0,0,0-4.784-1.674,5.675,5.675,0,0,0-5.184,2.59h-0.256l0.112-1.421q0.111-2.164.112-2.748V49.01h-4.88V73.584h4.88V65.277a8.3,8.3,0,0,1,.912-4.454,3.289,3.289,0,0,1,2.96-1.374q2.88,0,2.88,3.822V73.584h4.88V62.071Zm3.762,11.237a2.893,2.893,0,0,0,2.08.7,2.808,2.808,0,0,0,2.048-.719,3.039,3.039,0,0,0,.008-3.956,2.859,2.859,0,0,0-2.056-.695,2.946,2.946,0,0,0-2.1.679A3.095,3.095,0,0,0,160.14,73.308Z" transform="translate(-60 -49)"/>
</svg>
